<?xml version="1.0" encoding="utf-8"?>
<!-- Generator: Adobe Illustrator 24.3.0, SVG Export Plug-In . SVG Version: 6.00 Build 0)  -->
<svg version="1.1" id="Layer_1" xmlns="http://www.w3.org/2000/svg" xmlns:xlink="http://www.w3.org/1999/xlink" x="0px" y="0px"
	 viewBox="0 0 386 309.5" style="enable-background:new 0 0 386 309.5;" xml:space="preserve">
<style type="text/css">
	.st0{fill:#130F40;}
	.st1{fill:#F1C40F;}
	.st2{fill:#27AE60;}
	.st3{fill:#83DDA7;}
	.st4{fill:#263238;}
	.st5{opacity:0.2;fill:#FFFFFF;enable-background:new    ;}
	.st6{opacity:0.3;fill:#FFFFFF;enable-background:new    ;}
	.st7{opacity:0.6;fill:#FFFFFF;enable-background:new    ;}
	.st8{fill:#E4897B;}
	.st9{fill:#31AE60;}
	.st10{opacity:0.2;enable-background:new    ;}
	.st11{opacity:0.1;enable-background:new    ;}
	.st12{fill:#FFFFFF;}
	.st13{fill:#DE5753;}
	.st14{opacity:0.4;enable-background:new    ;}
	.st15{opacity:0.2;}
	.st16{opacity:0.1;fill:#FFFFFF;enable-background:new    ;}
	.st17{opacity:0.4;fill:#FFFFFF;enable-background:new    ;}
	.st18{opacity:0.5;fill:#FFFFFF;enable-background:new    ;}
</style>
<g id="freepik--Plant--inject-32">
	<path class="st0" d="M353.8,277.1c0.1-1,3.6-25.2-3.4-33.5c-1.4-1.8-3.5-2.8-5.8-2.9c-14.2-0.3-16.1,11-16.1,11.1l1.7,0.3
		c0.1-0.4,1.7-10,14.4-9.7c1.8,0,3.5,0.9,4.6,2.3c6.5,7.8,3,31.9,3,32.2L353.8,277.1z"/>
	<path class="st0" d="M354.6,276l1.7-0.1c0-0.2-0.6-22.2,10.3-26.8c10.6-4.5,15.4,4.7,15.6,5.1l1.5-0.8c0-0.1-5.7-11-17.8-5.9
		C354.1,252.6,354.6,275,354.6,276z"/>
	<path class="st0" d="M354.6,277.7c0-0.4,0.1-35.2,6.9-45.4c6.5-9.8,17-5.2,17.5-5l0.7-1.5c-0.1,0-12.3-5.4-19.6,5.6
		c-7.1,10.6-7.2,44.9-7.2,46.3L354.6,277.7z"/>
	<path class="st1" d="M342.6,241.5c0,0,6.2,2.3,4.3,7.6s-21.4,14.2-21.4,14.2s-8.2-7.5-0.7-19.7S342.4,237.7,342.6,241.5z"/>
	<path class="st1" d="M361.8,230.5c0,0-4.4-0.5-4-3.1s17.1-9.5,26.9,1.6c0,0-6.3,10.8-15.4,11S361.8,230.5,361.8,230.5z"/>
	<path class="st1" d="M366.4,248.4c0,0-3-2.4,0.2-3.6s19.3-0.9,19.5,15c0,0-18.7,3.1-21-2.9S366.4,248.4,366.4,248.4z"/>
	<path class="st2" d="M342.6,241.5c0,0,6.2,2.3,4.3,7.6s-21.4,14.2-21.4,14.2s-8.2-7.5-0.7-19.7S342.4,237.7,342.6,241.5z"/>
	<path class="st2" d="M361.8,230.5c0,0-4.4-0.5-4-3.1s17.1-9.5,26.9,1.6c0,0-6.3,10.8-15.4,11S361.8,230.5,361.8,230.5z"/>
	<path class="st2" d="M366.4,248.4c0,0-3-2.4,0.2-3.6s19.3-0.9,19.5,15c0,0-18.7,3.1-21-2.9S366.4,248.4,366.4,248.4z"/>
	<polygon class="st1" points="339.3,309.4 368.2,309.4 371.4,277.7 336.1,277.7 	"/>
	<polygon class="st3" points="339.3,309.4 368.2,309.4 371.4,277.7 336.1,277.7 	"/>
	<rect x="334.6" y="274.2" class="st1" width="38.3" height="7"/>
	<rect x="334.6" y="274.2" class="st2" width="38.3" height="7"/>
</g>
<g id="freepik--Chair--inject-32">
	<path class="st4" d="M306.5,286.7l-28.8-2.8v-40.5h-11.4v40.5l-28.9,2.8c-2.9,0.3-5.1,2.7-5.1,5.6v4.3h79.3v-4.3
		C311.6,289.4,309.4,287,306.5,286.7z"/>
	<path class="st5" d="M306.5,286.7l-28.8-2.8v-40.5h-11.4v40.5l-28.9,2.8c-2.9,0.3-5.1,2.7-5.1,5.6v4.3h79.3v-4.3
		C311.6,289.4,309.4,287,306.5,286.7z"/>
	<circle class="st4" cx="235.3" cy="302" r="7.5"/>
	<circle class="st4" cx="308.5" cy="302" r="7.5"/>
	<path class="st4" d="M264.3,216h15.4v31.9c0,2.3-1.8,4.1-4.1,4.1l0,0h-7.1c-2.3,0-4.1-1.8-4.1-4.1l0,0l0,0V216z"/>
	<path class="st6" d="M264.3,216h15.4v31.9c0,2.3-1.8,4.1-4.1,4.1l0,0h-7.1c-2.3,0-4.1-1.8-4.1-4.1l0,0l0,0V216z"/>
	<path class="st4" d="M299.2,152.7c0,0,2.2,54-12.9,63.3h17.2c0,0,13.3-18.4,9.5-63.3H299.2z"/>
	<path class="st6" d="M299.2,152.7c0,0,2.2,54-12.9,63.3h17.2c0,0,13.3-18.4,9.5-63.3H299.2z"/>
	<path class="st4" d="M309.4,220.1h-76.9v-6.7c0-2.8,2.2-5,5-5h66.9c2.8,0,5,2.2,5,5V220.1z"/>
	<path class="st4" d="M231.3,214.3h79.3c1.1,0,2,0.9,2,2v1.8c0,1.1-0.9,2-2,2h-79.3c-1.1,0-2-0.9-2-2v-1.8
		C229.3,215.2,230.2,214.3,231.3,214.3z"/>
	<path class="st7" d="M231.3,214.3h79.3c1.1,0,2,0.9,2,2v1.8c0,1.1-0.9,2-2,2h-79.3c-1.1,0-2-0.9-2-2v-1.8
		C229.3,215.2,230.2,214.3,231.3,214.3z"/>
	<path class="st4" d="M289.8,123.8h27.5c8.1,0,14.6,6.5,14.6,14.6v10.8c0,8.1-6.5,14.6-14.6,14.6h-27.5c-8.1,0-14.6-6.5-14.6-14.6
		v-10.8C275.2,130.3,281.8,123.8,289.8,123.8z"/>
</g>
<g id="freepik--Character--inject-32">
	<path class="st8" d="M206.4,79.7l-5.5-14.5c0,0,2.4-2.2,0.7-4.4s-11.7-8.4-13.6-7.3s-5.9,5.2-3.7,7.5s12,6.1,12,6.1l4.9,19
		L206.4,79.7z"/>
	<path class="st1" d="M244.7,107.2c0,0-25-5.1-27.7-6.4s-12.7-30.7-12.7-30.7l-7.7,3.6c0,0,6.2,29.5,12.5,36.6s33.4,13,33.4,13
		L244.7,107.2z"/>
	<path class="st9" d="M242.5,123.3l-0.5-0.1c-1.4-0.3-5.6-1.3-10.7-2.8c-8.2-2.4-18.6-6-22.2-10.1c-6.3-7-12.5-36.6-12.5-36.6
		l7.7-3.6c0,0,10,29.4,12.8,30.7s27.7,6.4,27.7,6.4L242.5,123.3z"/>
	<polygon class="st1" points="204.4,69.6 206,72.6 196.1,76 196.5,72.3 	"/>
	<path class="st10" d="M242.7,122.9c-1.4-0.2-5.7-0.9-10.9-2c3-5.1,11.6-7.7,11.6-7.7L242.7,122.9z"/>
	<path class="st4" d="M279.9,86.8c0,0,1.5,13.8-3.6,17.2s-30.3-0.6-33.2-6.1s7.9-20.7,7.9-20.7L279.9,86.8z"/>
	<polygon class="st8" points="177.9,268.8 184.5,270.4 187.9,261.3 190.9,253 183.4,249.8 180.5,259.8 	"/>
	<polygon class="st10" points="180.5,259.8 187.9,261.3 190.9,253 183.4,249.8 	"/>
	<path class="st1" d="M181.2,255l9.1,3.4c0,0,24.3-60.8,29.3-61s55.9,23.2,68.7,10.2s-5.7-44.3-5.7-44.3s-30.7-4.4-33,2.5
		c-0.6,2-1,4.1-1.3,6.2c-0.4,2.1-0.6,3.9-0.6,3.9l0,0c-1-0.2-31.8-8.2-43.9,0C191.5,184.4,181.2,255,181.2,255z"/>
	<path class="st0" d="M181.2,255l9.1,3.4c0,0,24.3-60.8,29.3-61s55.9,23.2,68.7,10.2s-5.7-44.3-5.7-44.3s-30.7-4.4-33,2.5
		c-0.6,2-1,4.1-1.3,6.2c-0.4,2.1-0.6,3.9-0.6,3.9l0,0c-1-0.2-31.8-8.2-43.9,0C191.5,184.4,181.2,255,181.2,255z"/>
	<polygon class="st8" points="233.6,294.7 240.2,293 238.9,283.6 237.7,275 229.6,275.7 231.7,285.8 	"/>
	<polygon class="st10" points="231.8,286 238.9,283.8 237.8,275.1 229.6,275.8 	"/>
	<polygon class="st1" points="194.1,255.1 180.8,250.6 180.2,256 190.3,259.5 	"/>
	<path class="st1" d="M266.2,210.7c0,0-2.1,0-34.3-1.5c0,0,4.8,40.2,7.4,70.4l-9.6,1.6c0,0-23-64.5-22.8-74.8s12-13.2,12-13.2
		S242,206.5,266.2,210.7z"/>
	<path class="st7" d="M266.2,210.7c0,0-2.1,0-34.3-1.5c0,0,4.8,40.2,7.4,70.4l-9.6,1.6c0,0-23-64.5-22.8-74.8s12-13.2,12-13.2
		S242,206.5,266.2,210.7z"/>
	<path class="st0" d="M266.2,210.7c0,0-2.1,0-34.3-1.5c0,0,4.8,40.2,7.4,70.4l-9.6,1.6c0,0-23-64.5-22.8-74.8s12-13.2,12-13.2
		S242,206.5,266.2,210.7z"/>
	<polygon class="st1" points="240.8,276.7 227.6,278.2 230.1,283.4 240.9,282 	"/>
	<path class="st11" d="M247.7,176l18,3.7c0,0-9.9-5.5-17.4-7.6C247.9,174.3,247.7,176,247.7,176z"/>
	<polygon class="st4" points="281.9,158.6 282.6,163.4 249.6,165.9 248.7,160.3 	"/>
	<polygon class="st10" points="281.9,158.6 282.6,163.4 249.6,165.9 248.7,160.3 	"/>
	<rect x="271" y="158.2" transform="matrix(0.9948 -0.1023 0.1023 0.9948 -15.179 28.6518)" class="st1" width="1.6" height="8.4"/>
	
		<rect x="256.6" y="160" transform="matrix(0.9979 -6.418397e-02 6.418397e-02 0.9979 -9.9119 17.0378)" class="st12" width="7.2" height="5.5"/>
	
		<rect x="250.8" y="159" transform="matrix(0.9948 -0.1023 0.1023 0.9948 -15.3738 26.5858)" class="st1" width="1.6" height="8.4"/>
	<rect x="271" y="158.2" transform="matrix(0.9948 -0.1023 0.1023 0.9948 -15.179 28.6518)" class="st7" width="1.6" height="8.4"/>
	
		<rect x="250.8" y="159" transform="matrix(0.9948 -0.1023 0.1023 0.9948 -15.3738 26.5858)" class="st7" width="1.6" height="8.4"/>
	<path class="st2" d="M244.1,106.7c6.2,1.7,12.6,2.4,19,2.1c10.6-0.5,23.2,4.6,23.2,4.6l-4.5,45.2l-33.1,1.7
		C248.7,160.2,237.6,122.5,244.1,106.7z"/>
	<path class="st4" d="M249.5,81.2c0,0,1.9-21.9,20.2-14c23,10,4.7,36.7-6.5,31.3S249.5,81.2,249.5,81.2z"/>
	<path class="st10" d="M254.6,110l0.5,12.4l4.1-5.8c0,0-1.5,13.7-0.6,21.2c0,0,0.8-13.4,2.6-21.2l4.4,5.8l6.3-12.3
		C271.9,110.1,261.8,106.5,254.6,110z"/>
	<path class="st8" d="M260.3,112.4l9.5-2.7c-5.9-4-2.9-13-2.9-13l-9.4,3.3c0.4,1.3,0.8,2.6,1,4c1,5.9-1.7,6.3-1.7,6.3L260.3,112.4z"
		/>
	<path class="st10" d="M257.5,99.9c0.4,1.3,0.8,2.6,1,4c4.5-1.8,8.4-7.3,8.4-7.3L257.5,99.9z"/>
	<path class="st8" d="M263.6,71.8c-8.3-1.8-12,2-14.5,10.5c-3.1,10.6-2.4,18.7,8.5,18.7C272.4,101,277.4,74.9,263.6,71.8z"/>
	<path class="st13" d="M254.6,83c-0.9,1.1-2,2.1-3.2,2.9c0.3,0.8,1.1,1.4,2,1.4L254.6,83z"/>
	<path class="st4" d="M259.8,83.5c-0.2,0.7,0.1,1.3,0.5,1.4s1-0.4,1.1-1s-0.1-1.3-0.5-1.4S260,82.8,259.8,83.5z"/>
	<path class="st4" d="M261.1,82.5l-1.3-0.9C259.8,81.6,260.2,83,261.1,82.5z"/>
	<path class="st4" d="M251.4,81.2c-0.2,0.7,0.1,1.3,0.5,1.4s1-0.4,1.1-1s-0.1-1.3-0.5-1.4S251.6,80.5,251.4,81.2z"/>
	<path class="st4" d="M252.7,80.3l-1.4-0.9C251.4,79.4,251.8,80.8,252.7,80.3z"/>
	<path class="st4" d="M264.5,80.1c-0.1,0-0.3-0.1-0.3-0.2c-0.7-1-1.8-1.7-3-1.9c-0.2,0-0.3-0.2-0.3-0.4c0-0.2,0.2-0.3,0.4-0.3
		c1.5,0.1,2.8,1,3.6,2.3c0.1,0.2,0,0.4-0.1,0.5l0,0C264.7,80.1,264.6,80.2,264.5,80.1z"/>
	<path class="st4" d="M255.2,76.4c-0.1,0-0.1,0-0.2-0.1c-1-0.5-2.2-0.5-3.1,0c-0.2,0.1-0.4,0-0.5-0.2l0,0c-0.1-0.2,0-0.4,0.2-0.5
		c0,0,0,0,0,0l0,0c1.2-0.6,2.6-0.5,3.8,0.1c0.2,0.1,0.2,0.3,0.1,0.5c0,0,0,0,0,0l0,0C255.5,76.3,255.3,76.4,255.2,76.4z"/>
	<path class="st4" d="M269.6,87.9c0,0-2.4-7.7-0.6-12.9c0,0-15-10.4-19.5,6.2c0,0,1.7-15.2,16.1-12.4s9.7,23.8,0.9,28.4
		C266.4,97.2,271.1,92.7,269.6,87.9z"/>
	<path class="st8" d="M267.9,89.4c0.6-2,2.7-3.1,4.7-2.5c2.5,0.9,2.6,6.4-4.1,6.3C267.4,93.1,267.1,92.1,267.9,89.4z"/>
	<path class="st4" d="M251.9,90.5c0.2,1,0.4,2.1,0.4,3.1h0.5c2.5,0.2,3.7-0.5,4.3-1.4c0.3-0.4,0.5-0.9,0.5-1.4c0-0.3,0-0.6,0-0.9
		c-1.6,0.5-3.3,0.7-5,0.6C252.4,90.5,252.2,90.5,251.9,90.5z"/>
	<path class="st12" d="M252.8,90.6l0.1,0.9c2.3,0.2,4,0,4.8-0.6c0-0.3,0-0.6,0-0.9C256.1,90.5,254.4,90.7,252.8,90.6z"/>
	<path class="st13" d="M252.9,93.7c2.5,0.2,3.7-0.5,4.3-1.4c-0.9-0.1-1.9,0-2.8,0.3C253.8,92.8,253.3,93.2,252.9,93.7z"/>
	<path class="st4" d="M263.6,72.5c0,0,0.3,14.4,9,16.2s-0.8-18.6-0.8-18.6s-12.9-8.4-21.5-2.5s-0.9,13.6-0.9,13.6
		S251.3,70.5,263.6,72.5z"/>
	<path class="st4" d="M267,85.7c-0.1,0-0.1,0-0.2-0.1c-6.2-4.8-3.1-14.1-3.1-14.2c0-0.1,0.2-0.2,0.3-0.2c0.1,0,0.2,0.2,0.1,0.3
		c0,0.1-3,9,2.9,13.6c0.1,0.1,0.1,0.2,0,0.3c0,0,0,0,0,0l0,0C267.1,85.6,267,85.7,267,85.7z"/>
	<path class="st1" d="M275.1,91.6c-1.1,2.9-3.9,4.6-6.3,3.7s-3.4-4-2.3-6.9s3.9-4.6,6.3-3.7S276.2,88.7,275.1,91.6z"/>
	<path class="st14" d="M275.1,91.6c-1.1,2.9-3.9,4.6-6.3,3.7s-3.4-4-2.3-6.9s3.9-4.6,6.3-3.7S276.2,88.7,275.1,91.6z"/>
	<path class="st1" d="M272.4,86.8c0,0,3.6-16.1-4.5-20.3c0.9,0.1,1.8,0.3,2.7,0.5c1,0.3,7.5,6.8,4.2,21.3L272.4,86.8z"/>
	<path class="st10" d="M272.4,86.8c0,0,3.6-16.1-4.5-20.3c0.9,0.1,1.8,0.3,2.7,0.5c1,0.3,7.5,6.8,4.2,21.3L272.4,86.8z"/>
	<path class="st1" d="M257.4,96l-0.6-0.1l0.2-1c4.4,0.7,8.9-0.3,12.7-2.7l0.6,0.8C266.4,95.5,261.8,96.6,257.4,96z"/>
	<g class="st15">
		<path d="M257.4,96l-0.6-0.1l0.2-1c4.4,0.7,8.9-0.3,12.7-2.7l0.6,0.8C266.4,95.5,261.8,96.6,257.4,96z"/>
	</g>
	<path class="st1" d="M274.8,91.2c-0.7,1.9-2.6,3-4.2,2.4s-2.3-2.6-1.5-4.6s2.6-3,4.2-2.4S275.5,89.3,274.8,91.2z"/>
	<path class="st1" d="M256.4,96.4l-0.8-0.1c-0.6-0.1-1-0.6-0.9-1.2l0,0c0.1-0.6,0.6-1,1.2-0.9l0,0l0.8,0.1c0.6,0.1,1,0.6,0.9,1.2
		l0,0C257.5,96,257,96.4,256.4,96.4z"/>
	<path class="st14" d="M256.4,96.4l-0.8-0.1c-0.6-0.1-1-0.6-0.9-1.2l0,0c0.1-0.6,0.6-1,1.2-0.9l0,0l0.8,0.1c0.6,0.1,1,0.6,0.9,1.2
		l0,0C257.5,96,257,96.4,256.4,96.4z"/>
	<polygon class="st1" points="267.2,106.2 261.3,112.1 263.7,119.2 271.9,110.1 	"/>
	<polygon class="st1" points="258.6,107.4 259.6,111.9 256.5,118.3 254.6,110 	"/>
	<path class="st8" d="M266,111.3l3.5-12.6c0,0-1.7-3.1-1.3-3.8s2.2-9.1,3.4-10.1s6.5,0.6,7.1,1.5s-5,12.4-5,12.4l-2,13.7L266,111.3z
		"/>
	<path class="st1" d="M286.4,113.4c9.5,9.7-9.5,31.7-20.4,30.8s0.3-40.9,0.3-40.9l7,1.1c0,0-2.5,17.3-1.7,18.6
		S283.2,110.1,286.4,113.4z"/>
	<path class="st9" d="M286.4,113.4c9.5,9.7-9.5,31.7-20.4,30.8s0.3-40.9,0.3-40.9l7,1.1c0,0-2.5,17.3-1.7,18.6
		S283.2,110.1,286.4,113.4z"/>
	<polygon class="st1" points="265.6,102.1 264.6,105.4 274.4,106.2 274.4,103.3 	"/>
	<path class="st7" d="M247,128.2h3.9c0.4,0,0.8,0.4,0.8,0.8v7.4c0,0.4-0.4,0.8-0.8,0.8H247c-0.4,0-0.8-0.4-0.8-0.8V129
		C246.2,128.5,246.5,128.2,247,128.2z"/>
	<rect x="246.5" y="128.8" class="st10" width="4.5" height="6.1"/>
	<rect x="248.4" y="126" class="st4" width="1" height="3.6"/>
	<path class="st1" d="M167.1,281.5c1-0.5,2.1-0.7,3.2-0.8l0,0c0,0,3.8-2.2,7.6-10.9h4.2c1.5,0,2.8,0.9,3.3,2.3
		c0.1,0.2,0.1,0.4,0.1,0.6c-0.1,1-0.2,2-0.3,3c-0.6,3.4-1.4,6.7-2.5,10l-0.7-0.2l1.3-6.3c0.4-2.1-1.8-0.1-2.9,2.1
		c-1,2.2-2.6,4.4-7.3,3.3C167.5,283.3,165.4,282.5,167.1,281.5z"/>
	<path class="st8" d="M178.6,267.5c0,0-5.3,11.1-8.3,13.2c0,0,4.1,2.4,8.3-3c5.5-7,6.8-5,6.8-5c-0.1-1.2-0.3-2.4-0.7-3.6
		C183.9,266.9,178.6,267.5,178.6,267.5z"/>
	<path class="st1" d="M225.3,307.9c0.9-0.7,1.8-1.2,2.9-1.5l0,0c0,0,3.2-3.1,4.8-12.4l4.1-1c1.4-0.3,2.9,0.3,3.7,1.5
		c0.1,0.2,0.2,0.3,0.3,0.5c0.2,1,0.3,2,0.4,3c0.2,3.4,0.2,6.8,0,10.3h-0.7l-0.2-6.4c-0.1-2.2-1.8,0.4-2.3,2.7s-1.5,4.8-6.3,4.9
		C226.2,309.5,223.9,309.2,225.3,307.9z"/>
	<path class="st8" d="M233.1,291.6c0,0-2.5,12-5,14.8c0,0,4.5,1.4,7.4-4.9c3.7-8.1,5.5-6.5,5.5-6.5c-0.4-1.1-0.9-2.3-1.5-3.3
		C238.2,289.6,233.1,291.6,233.1,291.6z"/>
</g>
<g id="freepik--speech-bubble--inject-32">
	<g id="XMLID_1_">
		<g>
			<polygon class="st3" points="304.6,72.7 304.1,73.1 297.2,73.1 298.2,71.7 			"/>
			<polygon class="st2" points="287.7,86 297.2,73.1 304.1,73.1 			"/>
			<path class="st3" d="M325.4,48c2.8,0,5.1,2.3,5.1,5.1V68c0,2.8-2.3,5.1-5.1,5.1h-21.3l0.5-0.4l-6.4-1l-1,1.4h-6.6
				c-2.8,0-5.1-2.3-5.1-5.1V53.1c0-2.8,2.3-5.1,5.1-5.1H325.4z M320.2,63.5c0.8,0,1.5-0.7,1.5-1.5h0c0-0.8-0.7-1.5-1.5-1.5
				c-0.8,0-1.5,0.7-1.5,1.5C318.7,62.9,319.4,63.5,320.2,63.5z M312.5,63.5c0.8,0,1.5-0.7,1.5-1.5h0c0-0.8-0.7-1.5-1.5-1.5
				c-0.8,0-1.5,0.7-1.5,1.5C311,62.9,311.7,63.5,312.5,63.5z M304.8,63.5c0.8,0,1.5-0.7,1.5-1.5h0c0-0.8-0.7-1.5-1.5-1.5
				c-0.8,0-1.5,0.7-1.5,1.5C303.3,62.9,304,63.5,304.8,63.5z M297.1,63.5c0.8,0,1.5-0.7,1.5-1.5h0c0-0.8-0.7-1.5-1.5-1.5
				c-0.8,0-1.5,0.7-1.5,1.5S296.3,63.5,297.1,63.5z"/>
			<path class="st9" d="M314,62c0,0.8-0.6,1.5-1.5,1.5c-0.8,0-1.5-0.7-1.5-1.5c0-0.8,0.6-1.5,1.5-1.5C313.3,60.6,314,61.2,314,62
				L314,62z"/>
			<path class="st9" d="M321.7,62c0,0.8-0.6,1.5-1.5,1.5c-0.8,0-1.5-0.7-1.5-1.5c0-0.8,0.6-1.5,1.5-1.5
				C321,60.6,321.6,61.2,321.7,62L321.7,62z"/>
			<path class="st9" d="M306.3,62c0,0.8-0.6,1.5-1.5,1.5c-0.8,0-1.5-0.7-1.5-1.5c0-0.8,0.6-1.5,1.5-1.5
				C305.6,60.6,306.3,61.2,306.3,62L306.3,62z"/>
			<path class="st9" d="M298.6,62c0,0.8-0.6,1.5-1.5,1.5c-0.8,0-1.5-0.7-1.5-1.5s0.6-1.5,1.5-1.5C297.9,60.6,298.6,61.2,298.6,62
				L298.6,62z"/>
		</g>
		<g>
		</g>
	</g>
</g>
<g id="freepik--Bird--inject-32">
	<path class="st1" d="M160.3,39.6l7.9-14.8c0.4-0.7,1.2-0.9,1.9-0.6L195,37.7c0.7,0.4,0.9,1.2,0.6,1.9l-7.9,14.8
		c-0.4,0.7-1.2,0.9-1.9,0.6l-24.9-13.4C160.2,41.1,159.9,40.3,160.3,39.6z"/>
	<path class="st3" d="M160.3,39.6l7.9-14.8c0.4-0.7,1.2-0.9,1.9-0.6L195,37.7c0.7,0.4,0.9,1.2,0.6,1.9l-7.9,14.8
		c-0.4,0.7-1.2,0.9-1.9,0.6l-24.9-13.4C160.2,41.1,159.9,40.3,160.3,39.6z"/>
	<path class="st10" d="M167.6,26.1l7.8,14.6c0.6,1.1,1.8,1.8,3.1,1.7l16.2-1.6l-16.5,2.4c-1.5,0.2-2.9-0.6-3.6-1.9L167.6,26.1z"/>
	<path class="st1" d="M148.7,23.4c0.3-5.6,4.4-16.8,9.4-20.2c5-3.4,1.7,1.3,1.7,1.3s4.8-4.6,7.2-4.5s0,3,0,3s5.1-3.2,7.5-3
		c2.4,0.2,0,2.9,0,2.9s4.2-3,5.9-1.6s-21.9,17-24.5,23.3S148.4,29,148.7,23.4z"/>
	<path class="st3" d="M148.7,23.4c0.3-5.6,4.4-16.8,9.4-20.2c5-3.4,1.7,1.3,1.7,1.3s4.8-4.6,7.2-4.5s0,3,0,3s5.1-3.2,7.5-3
		c2.4,0.2,0,2.9,0,2.9s4.2-3,5.9-1.6s-21.9,17-24.5,23.3S148.4,29,148.7,23.4z"/>
	<path class="st1" d="M169,22.5l3.1,2c0.1,0.1,0.2,0.2,0.1,0.4c0,0,0,0,0,0c0,0.1-0.1,0.1-0.2,0.1l-3.3-0.3l0.3,2.5
		c0,0.2-0.1,0.3-0.2,0.3c-0.1,0-0.2,0-0.2-0.1l-1.9-2.1L169,22.5z"/>
	<path class="st6" d="M169,22.5l3.1,2c0.1,0.1,0.2,0.2,0.1,0.4c0,0,0,0,0,0c0,0.1-0.1,0.1-0.2,0.1l-3.3-0.3l0.3,2.5
		c0,0.2-0.1,0.3-0.2,0.3c-0.1,0-0.2,0-0.2-0.1l-1.9-2.1L169,22.5z"/>
	<path class="st1" d="M124.7,10c0,0,4.4-3,10.9-1.1c0,0,1.9,8.7,7.1,11.6c2.9,1.6,9.8,1.4,15.3-0.3c6.5-2.1,9.8-2.1,10.9,0.3
		c1.2,2.5-0.1,5-5.1,6.2c-5,1.2-9,9.9-18.1,10c-9.1,0.1-13.9-9-11.6-17C132,15.7,128.8,12.3,124.7,10z"/>
	<path class="st2" d="M124.7,10c0,0,4.4-3,10.9-1.1c0,0,1.9,8.7,7.1,11.6c2.9,1.6,9.8,1.4,15.3-0.3c6.5-2.1,9.8-2.1,10.9,0.3
		c1.2,2.5-0.1,5-5.1,6.2c-5,1.2-9,9.9-18.1,10c-9.1,0.1-13.9-9-11.6-17C132,15.7,128.8,12.3,124.7,10z"/>
	<path class="st4" d="M166.5,22.2c0,0.2-0.2,0.4-0.5,0.4c-0.2,0-0.4-0.2-0.4-0.4c0-0.2,0.2-0.4,0.4-0.4l0,0l0,0
		C166.3,21.8,166.5,22,166.5,22.2z"/>
	<path class="st1" d="M143.7,29.5c-5.4,1.5-17.3,1-22.1-2.7s0.7-2,0.7-2s-5.9-3.1-6.5-5.5s2.9-0.9,2.9-0.9s-4.6-3.9-5.2-6.2
		s2.8-0.9,2.8-0.9s-4.2-3.1-3.3-5.2s22.9,15.6,29.8,16.1C149.5,22.8,149.1,28,143.7,29.5z"/>
	<path class="st3" d="M143.7,29.5c-5.4,1.5-17.3,1-22.1-2.7s0.7-2,0.7-2s-5.9-3.1-6.5-5.5s2.9-0.9,2.9-0.9s-4.6-3.9-5.2-6.2
		s2.8-0.9,2.8-0.9s-4.2-3.1-3.3-5.2s22.9,15.6,29.8,16.1C149.5,22.8,149.1,28,143.7,29.5z"/>
	<path class="st9" d="M108.5,5.2c0,0-0.1,0-0.1,0c-0.9-0.3-1.9-0.6-2.8-0.9c-0.2,0-0.3-0.2-0.3-0.4s0.2-0.3,0.4-0.3c0,0,0.1,0,0.1,0
		c1,0.3,1.9,0.6,2.9,1c0.2,0.1,0.3,0.3,0.2,0.5C108.8,5.2,108.7,5.3,108.5,5.2L108.5,5.2z"/>
	<path class="st9" d="M48.1,86.4c-0.2,0-0.3-0.2-0.3-0.4c0-0.2,0.2-0.3,0.3-0.3c2,0,4-0.2,5.9-0.6c0.2,0,0.4,0.1,0.4,0.3
		c0,0.2-0.1,0.4-0.3,0.4l0,0C52.1,86.1,50.1,86.3,48.1,86.4z M42.1,86L42.1,86c-2-0.2-4-0.6-6-1c-0.2,0-0.3-0.2-0.3-0.4
		c0-0.2,0.2-0.3,0.4-0.3l0,0c1.9,0.4,3.9,0.8,5.9,1c0.2,0,0.3,0.2,0.3,0.4C42.4,85.9,42.3,86,42.1,86L42.1,86z M59.8,84
		c-0.1,0-0.3-0.1-0.3-0.2c-0.1-0.2,0-0.4,0.2-0.5l0,0c1.8-0.8,3.5-1.8,5-3.1c0.2-0.1,0.4-0.1,0.5,0.1c0,0,0,0,0,0
		c0.1,0.1,0.1,0.4,0,0.5c-1.6,1.3-3.3,2.4-5.2,3.2C60,84,59.9,84,59.8,84L59.8,84z M30.3,83.4h-0.1c-1.9-0.6-3.8-1.4-5.7-2.2
		c-0.2-0.1-0.2-0.3-0.1-0.5c0,0,0,0,0,0c0.1-0.2,0.3-0.2,0.4-0.2c1.8,0.8,3.7,1.5,5.6,2.2c0.2,0,0.3,0.2,0.3,0.4
		S30.5,83.4,30.3,83.4L30.3,83.4z M19.3,78.5c-0.1,0-0.1,0-0.2,0c-1.8-1-3.5-2.1-5.2-3.2c-0.2-0.1-0.2-0.4-0.1-0.5
		c0.1-0.2,0.4-0.2,0.5-0.1c1.6,1.1,3.3,2.2,5.1,3.2c0.2,0.1,0.2,0.3,0.1,0.5c0,0,0,0,0,0l0,0C19.6,78.5,19.4,78.6,19.3,78.5
		L19.3,78.5z M68.8,76.2c-0.1,0-0.1,0-0.2,0c-0.2-0.1-0.2-0.3-0.1-0.5c0,0,0,0,0,0l0,0c0.3-0.5,0.6-1.1,0.9-1.7
		c0.6-1.2,1-2.5,1.3-3.8c0.1-0.2,0.3-0.3,0.5-0.3c0.2,0.1,0.3,0.3,0.3,0.5c-0.3,1.4-0.8,2.7-1.3,3.9c-0.3,0.6-0.6,1.2-0.9,1.8
		C69,76.2,68.9,76.3,68.8,76.2L68.8,76.2z M9.5,71.6c-0.1,0-0.2,0-0.2-0.1c-1.5-1.3-2.9-2.8-4.3-4.3c-0.1-0.1-0.1-0.4,0-0.5
		c0.1-0.1,0.4-0.1,0.5,0c1.3,1.5,2.7,2.9,4.2,4.2c0.1,0.1,0.1,0.4,0,0.5C9.6,71.5,9.5,71.6,9.5,71.6L9.5,71.6z M71.7,64.7
		c-0.2,0-0.4-0.2-0.4-0.4l0,0c0-2-0.2-4-0.6-5.9c0-0.2,0.1-0.4,0.3-0.4c0.2,0,0.4,0.1,0.4,0.3c0.4,2,0.5,4,0.6,6.1
		C72,64.5,71.9,64.7,71.7,64.7C71.7,64.7,71.7,64.7,71.7,64.7L71.7,64.7z M69.7,52.8c-0.2,0-0.3-0.1-0.4-0.3
		c-0.5-1.8-1.1-3.6-1.9-5.7c-0.1-0.2,0-0.4,0.2-0.5c0,0,0,0,0,0l0,0c0.2-0.1,0.4,0,0.5,0.2c0.8,2.1,1.4,4,1.9,5.7
		C70.1,52.5,70,52.7,69.7,52.8L69.7,52.8z M65.5,41.5c-0.1,0-0.3-0.1-0.3-0.2c-0.6-1.6-1.5-3.4-2.4-5.4v-0.1c-0.1-0.2,0-0.4,0.2-0.5
		c0,0,0,0,0,0c0.2,0,0.3,0,0.4,0.1v0.1c0.9,2,1.8,3.8,2.4,5.4c0.1,0.2,0,0.4-0.2,0.5L65.5,41.5z M60.5,30.5c-0.2,0-0.3-0.1-0.3-0.2
		c-0.9-2.1-1.6-3.9-2.2-5.6c-0.1-0.2,0-0.4,0.2-0.5c0.2-0.1,0.4,0,0.5,0.2c0.6,1.7,1.3,3.5,2.2,5.6c0.1,0.2,0,0.4-0.2,0.5
		c0,0,0,0,0,0l0,0C60.6,30.5,60.6,30.5,60.5,30.5L60.5,30.5z M56.9,19c-0.2,0-0.3-0.1-0.4-0.3c-0.2-1.1-0.3-2.2-0.3-3.2
		c0-1,0.1-1.9,0.3-2.9c0.1-0.2,0.3-0.3,0.5-0.2c0,0,0,0,0,0c0.2,0,0.3,0.2,0.3,0.4c-0.2,0.9-0.3,1.8-0.2,2.7c0,1,0.1,2.1,0.2,3.1
		C57.3,18.8,57.1,18.9,56.9,19L56.9,19z M59.5,7.6c-0.1,0-0.2,0-0.2-0.1c-0.1-0.1-0.1-0.4,0-0.5c1.3-1.6,3-2.9,4.8-3.8
		c0.2-0.1,0.4,0,0.5,0.2c0.1,0.2,0,0.4-0.2,0.5c-1.7,0.9-3.3,2.1-4.6,3.6C59.8,7.6,59.6,7.7,59.5,7.6L59.5,7.6z M99.8,2.7L99.8,2.7
		c-2-0.4-4-0.7-6-1c-0.2,0-0.3-0.2-0.3-0.4l0,0c0-0.2,0.2-0.3,0.4-0.3l0,0c2,0.3,4,0.6,6,1c0.2,0,0.3,0.3,0.3,0.5
		C100.1,2.6,100,2.7,99.8,2.7L99.8,2.7z M69.8,1.9c-0.2,0-0.4-0.1-0.4-0.3c0-0.2,0.1-0.4,0.3-0.4c2-0.4,4-0.7,6-0.9
		c0.2,0,0.4,0.1,0.4,0.3C76.1,0.8,76,1,75.8,1c0,0,0,0,0,0l0,0C73.8,1.1,71.8,1.4,69.8,1.9L69.8,1.9z M87.8,1.2L87.8,1.2
		c-1.7-0.1-3.8-0.2-6-0.3c-0.2,0-0.3-0.2-0.3-0.4c0-0.2,0.2-0.3,0.3-0.3l0,0c2.2,0,4.3,0.2,6,0.3c0.2,0,0.4,0.2,0.4,0.4c0,0,0,0,0,0
		l0,0C88.2,1,88,1.2,87.8,1.2L87.8,1.2z"/>
	<path class="st9" d="M1.7,62.4c-0.1,0-0.3-0.1-0.3-0.2c-0.5-0.9-1-1.8-1.3-2.7c-0.1-0.2,0-0.4,0.2-0.5c0,0,0,0,0,0l0,0
		c0.2-0.1,0.4,0,0.5,0.2c0,0,0,0,0,0C1.1,60.1,1.5,61,2,61.8c0.1,0.2,0.1,0.4-0.1,0.5c0,0,0,0,0,0C1.9,62.4,1.8,62.4,1.7,62.4
		L1.7,62.4z"/>
</g>
<g id="freepik--Desk--inject-32">
	<rect x="85.2" y="141.4" class="st12" width="38" height="7.8"/>
	<rect x="85.2" y="141.4" class="st11" width="38" height="7.8"/>
	<rect x="85.2" y="141.4" class="st11" width="16" height="7.8"/>
	<polygon class="st11" points="85.2,142.5 119,142.5 85.2,143.5 	"/>
	<polygon class="st11" points="123.2,143.9 93.9,144.6 123.2,144.6 	"/>
	<polygon class="st11" points="86.8,146.1 101.2,145.5 122.4,146.1 101.2,146.4 	"/>
	<polygon class="st11" points="85.2,147.7 110.2,147.7 85.2,148.3 	"/>
	<polygon class="st11" points="123.1,148.3 106.4,148.6 123.2,148.6 	"/>
	<rect x="79.9" y="133.6" class="st12" width="38" height="7.8"/>
	<rect x="79.9" y="133.6" class="st11" width="38" height="7.8"/>
	<rect x="79.9" y="133.6" class="st11" width="16" height="7.8"/>
	<polygon class="st11" points="79.9,134.8 113.7,134.8 79.9,135.7 	"/>
	<polygon class="st11" points="117.9,136.1 88.6,136.8 117.9,136.8 	"/>
	<polygon class="st11" points="81.5,138.3 95.9,137.7 117.1,138.3 95.9,138.6 	"/>
	<polygon class="st11" points="79.9,139.9 104.9,139.9 79.9,140.5 	"/>
	<polygon class="st11" points="117.8,140.5 101.1,140.8 117.9,140.8 	"/>
	<rect x="84.2" y="125.8" class="st12" width="38" height="7.8"/>
	<rect x="84.2" y="125.8" class="st11" width="38" height="7.8"/>
	<rect x="84.2" y="125.8" class="st11" width="16" height="7.8"/>
	<polygon class="st11" points="84.2,127 118,127 84.2,127.9 	"/>
	<polygon class="st11" points="122.2,128.3 92.9,129 122.2,129 	"/>
	<polygon class="st11" points="85.8,130.5 100.2,129.9 121.5,130.5 100.2,130.8 	"/>
	<polygon class="st11" points="84.2,132.1 109.3,132.1 84.2,132.7 	"/>
	<polygon class="st11" points="122.2,132.7 105.4,133 122.2,133 	"/>
	<polygon class="st4" points="147.5,149 148.5,145.3 189,145.3 207.7,147.2 208.4,149 	"/>
	<polygon class="st14" points="189,145.3 189,149 147.5,149 148.5,145.3 	"/>
	<path class="st4" d="M180.9,127.5c0.2,1.7-1,3.3-2.8,3.5c0,0,0,0,0,0h-0.4h-62.1c-2,0-3.7-1.6-3.9-3.6L108,87.7
		c0-0.4,0-0.8,0.1-1.2c0.4-1.4,1.7-2.4,3.1-2.4h62.2c2,0,3.7,1.6,3.9,3.6L180.9,127.5z"/>
	<path class="st14" d="M177.5,131h-61.9c-2,0-3.7-1.6-3.9-3.6L108,87.7c0-0.4,0-0.8,0.1-1.2H170c2,0,3.7,1.6,3.9,3.6l3.7,39.8
		C177.6,130.2,177.5,130.6,177.5,131z"/>
	<polygon class="st4" points="134.8,106.6 147.6,106.6 144.2,143.4 164.5,146.5 164.5,149 121.7,149 121.7,146.5 130.5,143.4 	"/>
	<polygon class="st16" points="147.6,106.6 138.1,148.4 130.5,148.2 134.8,106.6 	"/>
	<polygon class="st4" points="147.6,309.4 141.4,309.4 130.4,156.2 138.6,156.2 	"/>
	<polygon class="st17" points="147.6,309.4 141.4,309.4 131,163.8 130.4,156.4 138.6,156.4 139,163.8 	"/>
	<polygon class="st10" points="139,163.4 131,163.4 130.4,156.4 138.6,156.4 	"/>
	<polygon class="st4" points="192.5,309.4 186.4,309.4 185.4,156.2 193.5,156.2 	"/>
	<polygon class="st18" points="193.5,156.4 193.4,181.2 192.5,309.4 186.4,309.4 185.6,181.2 185.4,156.4 	"/>
	<polygon class="st10" points="193.5,156.4 193.4,181.4 185.6,181.4 185.4,156.4 	"/>
	<polygon class="st4" points="257.6,309.4 251.4,309.4 240.4,156.2 248.6,156.2 	"/>
	<polygon class="st18" points="257.6,309.4 251.4,309.4 241,163.8 240.4,156.4 248.6,156.4 249,163.8 	"/>
	<polygon class="st10" points="249,163.4 241,163.4 240.4,156.4 248.6,156.4 	"/>
	<polygon class="st4" points="77.5,309.4 71.4,309.4 80.4,156.2 88.5,156.2 	"/>
	<polygon class="st18" points="88.5,156.4 87.9,163.8 77.5,309.4 71.4,309.4 79.9,163.8 80.4,156.4 	"/>
	<polygon class="st10" points="80.4,156.4 88.5,156.4 87.9,163.4 79.9,163.4 	"/>
	<path class="st1" d="M73.9,152.4H255v5.5c0,1.2-1,2.2-2.2,2.2l0,0H76.1c-1.2,0-2.2-1-2.2-2.2l0,0l0,0L73.9,152.4L73.9,152.4z"/>
	<path class="st7" d="M73.9,152.4H255v5.5c0,1.2-1,2.2-2.2,2.2l0,0H76.1c-1.2,0-2.2-1-2.2-2.2l0,0l0,0L73.9,152.4L73.9,152.4z"/>
	<rect x="73.9" y="152.4" class="st10" width="181.1" height="3.8"/>
	<path class="st1" d="M258.8,153.4H70.1c-1.2,0-2.2-1-2.2-2.2l0,0l0,0c0-1.2,1-2.2,2.2-2.2h188.7c1.2,0,2.2,1,2.2,2.2l0,0
		C261,152.4,260,153.4,258.8,153.4L258.8,153.4z"/>
	<path class="st7" d="M258.8,153.4H70.1c-1.2,0-2.2-1-2.2-2.2l0,0l0,0c0-1.2,1-2.2,2.2-2.2h188.7c1.2,0,2.2,1,2.2,2.2l0,0
		C261,152.4,260,153.4,258.8,153.4L258.8,153.4z"/>
	<path class="st1" d="M214.2,142.4l2.3-3.5c0.5-0.7,1.2-1.1,2.1-1.1h2.9c0.2,0,0.5,0,0.7,0.1l10.5,3.2c0.6,0.2,1.1,0.6,1.4,1.1
		l1.5,2.5L214.2,142.4z"/>
	<path class="st10" d="M235.6,144.7l-15.3-1.7l-6.2-0.7l2.3-3.5c0.5-0.7,1.2-1.1,2.1-1.1h2.9c0.2,0,0.5,0,0.7,0.1l0.2,0.1l10.2,3.1
		c0.6,0.2,1.1,0.6,1.4,1.1L235.6,144.7z"/>
	<path class="st10" d="M235.6,144.7l-15.3-1.7l2.1-5.1l10.2,3.1c0.6,0.2,1.1,0.6,1.4,1.1L235.6,144.7z"/>
	<path class="st1" d="M242.9,148.7v0.3h-32.4l1.2-4.7c0.5-1.8,2.1-3,3.9-3H230c0.5,0,1,0.1,1.4,0.2l1.8,0.7l7.1,2.7
		C241.9,145.5,242.9,147,242.9,148.7z"/>
	<path class="st10" d="M242.9,148.7v0.3h-13.3l0.7-5.1c0.2-1.2,1.2-2,2.4-1.8c0.2,0,0.3,0.1,0.4,0.1l7.1,2.7
		C241.9,145.5,242.9,147,242.9,148.7z"/>
	<path class="st4" d="M231.7,145.6l4.2-12.7c0.2-0.5,0.7-0.8,1.2-0.6l0.1,0.1l0,0c0.4,0.2,0.6,0.7,0.5,1.1l-3.6,13.6
		C234.1,147,231.8,147.9,231.7,145.6z"/>
	<polygon class="st10" points="214.2,148 212.3,148 212.6,146.1 214.5,146.1 	"/>
	<polygon class="st10" points="217,147.9 215.1,147.9 215.4,146.1 217.3,146.1 	"/>
</g>
</svg>
